<svg xmlns="http://www.w3.org/2000/svg" width="300" height="300" viewBox="0 0 333 300">
  <defs>
    <linearGradient id="g" x1="0" y1="0" x2="0" y2="1">
      <stop offset="0%" stop-color="#34d399"/>
      <stop offset="100%" stop-color="#16a34a"/>
    </linearGradient>
  </defs>
  <g stroke="url(#g)" stroke-width="6" fill="none">
    <path fill="url(#g)" d="M62.27 293.73c-18.697.008-37.558-3.214-55.749-9.9 9.982-57.684 50.387-104.92 104.1-124.6-.001-.007.001-.015 0-.023.016-.006.03-.017.045-.023-9.807-56.354 10.879-114.97 55.839-152.45 44.966 37.488 65.678 96.115 55.862 152.48 53.712 19.682 94.12 66.942 104.1 124.62-54.94 20.195-116.04 8.792-159.94-27.875-.004.004-.018-.004-.023 0-.004-.004-.018.004-.023 0-29.368 24.529-66.442 37.76-104.21 37.775zm1.443-27.063c30.144-.334 59.671-10.753 83.443-29.859-6.334-7.432-12.082-15.551-17.14-24.311-5.051-8.748-9.178-17.761-12.449-26.95-36.018 13.977-64.578 42.917-78.008 79.204 8.034 1.372 16.11 2.006 24.153 1.917zm206.78 0c7.637.015 15.312-.615 22.936-1.917-13.429-36.283-41.975-65.246-77.986-79.226-3.269 9.199-7.415 18.237-12.471 26.995-5.056 8.757-10.81 16.856-17.14 24.289 24.094 19.364 54.093 29.8 84.661 29.859zm-104.01-48.92c.005-.009.018-.013.023-.023 4.783-5.779 9.159-12.027 13.035-18.741 3.877-6.715 7.106-13.626 9.72-20.658-7.406-1.255-15.014-1.917-22.778-1.917-7.753 0-15.336.665-22.733 1.917 2.614 7.032 5.821 13.944 9.698 20.658 3.88 6.721 8.248 12.979 13.035 18.763zm-29.566-65.717c9.591-1.762 19.467-2.684 29.566-2.684 10.116 0 20.007.914 29.611 2.684 5.91-38.18-4.88-77.368-29.59-107.14-24.7 29.767-35.49 68.964-29.59 107.14z"/>
    <path d="M124.92 202.89c-8.473-17.212-13.622-35.293-15.651-53.471m26.409-8.187c1.29 17.738 6.12 35.478 14.749 52.163"/>
    <path d="M176.92 149.69c24.43 1.549 47.389 8.495 67.702 19.666m-20.974 19.688c-16.301-7.608-34.374-12.067-53.426-12.584"/>
    <path d="M133.06 246.73c16.246-9.935 30.585-23.43 41.744-40.143m22.868 14.501c-15.038 22.716-34.98 40.521-57.576 52.817"/>
  </g>
</svg>